<svg xmlns="http://www.w3.org/2000/svg" width="40" height="37.497" viewBox="0 0 40 37.497"><defs><style>.a{fill:none;}.b{fill:#ff3030;}</style></defs><g transform="translate(0 0)"><path class="a" d="M671.014,375H675v-3.827a3.888,3.888,0,0,1-.476,1.875A3.849,3.849,0,0,1,671.014,375Zm-32.028,0a3.849,3.849,0,0,1-3.51-1.952,3.888,3.888,0,0,1-.476-1.875V375Z" transform="translate(-635 -337.503)"/><path class="b" d="M674.379,368.876l-16.014-29.159a3.664,3.664,0,0,0-6.73,0l-16.014,29.159a4.771,4.771,0,0,0-.621,2.3,3.888,3.888,0,0,0,.476,1.875,3.849,3.849,0,0,0,3.51,1.952h32.028a3.849,3.849,0,0,0,3.51-1.952,3.888,3.888,0,0,0,.476-1.875A4.771,4.771,0,0,0,674.379,368.876ZM657,367h-4v-4h4Zm-4-17h4v10h-4Z" transform="translate(-635 -337.503)"/></g></svg>