<svg xmlns="http://www.w3.org/2000/svg" width="24" height="24" viewBox="0 0 24 24"><defs><style>.a,.b{fill:#fff;}.a{opacity:0;}</style></defs><g transform="translate(-1566 -650)"><rect class="a" width="24" height="24" transform="translate(1566 650)"/><g transform="translate(1567 660)"><path d="M10.47,4.92A18.55,18.55,0,0,1,0,1.17L.94,0a17.32,17.32,0,0,0,9.53,3.42A17.24,17.24,0,0,0,20,0l.94,1.17A18.55,18.55,0,0,1,10.47,4.92Z"/><line class="b" y2="3.75" transform="translate(10.5 3.99)"/><rect width="1.5" height="3.75" transform="translate(9.75 3.99)"/><line class="b" x2="0.74" y2="2.76" transform="translate(14.32 4.06)"/><rect width="1.5" height="2.86" transform="matrix(0.966, -0.259, 0.259, 0.966, 13.593, 4.248)"/><line class="b" x2="1.79" y2="3.09" transform="translate(17.46 2.09)"/><rect width="1.5" height="3.57" transform="matrix(0.866, -0.5, 0.5, 0.866, 16.817, 2.46)"/><line class="b" y1="3.09" x2="1.79" transform="translate(1.75 2.09)"/><rect width="3.57" height="1.5" transform="translate(1.103 4.81) rotate(-60)"/><line class="b" y1="2.77" x2="0.75" transform="translate(5.93 4.06)"/><rect width="2.87" height="1.5" transform="translate(5.211 6.631) rotate(-74.99)"/></g></g></svg>