<svg xmlns="http://www.w3.org/2000/svg" width="24" height="24" viewBox="0 0 24 24"><defs><style>.a{fill:#fff;opacity:0;}</style></defs><g transform="translate(-1597 -646)"><rect class="a" width="24" height="24" transform="translate(1597 646)"/><g transform="translate(1598 651)"><path d="M21.53,6.75C21.34,6.47,16.76,0,10.91,0S.49,6.47.3,6.75L0,7.18l.3.43c.19.27,4.77,6.75,10.61,6.75S21.34,7.88,21.53,7.61l.3-.43Zm-10.62,5.1a4.67,4.67,0,1,1,4.67-4.67,4.67,4.67,0,0,1-4.67,4.67Z"/><path d="M10.91,4.51a2.67,2.67,0,1,0,2.67,2.67A2.67,2.67,0,0,0,10.91,4.51Z"/></g></g></svg>